<svg width="70" height="70" viewBox="0 0 70 70" fill="none" xmlns="http://www.w3.org/2000/svg">
<circle cx="35" cy="35" r="35" fill="white"/>
<mask id="path-2-inside-1_4411_19155" fill="white">
<path fill-rule="evenodd" clip-rule="evenodd" d="M10 47.5L60 47.5L60 22.5L10 22.5L10 30.5891C10 30.5891 10 30.5891 10.0001 30.5891C12.4366 30.5891 14.4119 32.5643 14.4119 35.0008C14.4119 37.4374 12.4366 39.4126 10.0001 39.4126C10 39.4126 10 39.4126 10 39.4126L10 47.5Z"/>
</mask>
<path fill-rule="evenodd" clip-rule="evenodd" d="M10 47.5L60 47.5L60 22.5L10 22.5L10 30.5891C10 30.5891 10 30.5891 10.0001 30.5891C12.4366 30.5891 14.4119 32.5643 14.4119 35.0008C14.4119 37.4374 12.4366 39.4126 10.0001 39.4126C10 39.4126 10 39.4126 10 39.4126L10 47.5Z" fill="white"/>
<path d="M60 47.5L60 49.5L62 49.5L62 47.5L60 47.5ZM10 47.5L8 47.5L8 49.5L10 49.5L10 47.5ZM60 22.5L62 22.5L62 20.5L60 20.5L60 22.5ZM10 22.5L10 20.5L8 20.5L8 22.5L10 22.5ZM10 30.5891L8 30.5891L8 32.5891L10 32.5891L10 30.5891ZM10 39.4126L10 37.4126L8 37.4126L8 39.4126L10 39.4126ZM60 45.5L10 45.5L10 49.5L60 49.5L60 45.5ZM58 22.5L58 47.5L62 47.5L62 22.5L58 22.5ZM10 24.5L60 24.5L60 20.5L10 20.5L10 24.5ZM12 30.5891L12 22.5L8 22.5L8 30.5891L12 30.5891ZM10 32.5891C10 32.5891 10 32.5891 10 32.5891C10 32.5891 10 32.5891 10 32.5891C10 32.5891 10 32.5891 10 32.5891L10 32.5891C10 32.5891 10 32.5891 10 32.5891C10 32.5891 10 32.5891 10 32.5891C10 32.5891 10 32.5891 10 32.5891C10 32.5891 10 32.5891 10 32.5891C10 32.5891 10 32.5891 10 32.5891C10 32.5891 10 32.5891 10 32.5891C10 32.5891 10 32.5891 10 32.5891C10 32.5891 10 32.5891 10 32.5891C10.0001 32.5891 10.0001 32.5891 10.0001 32.5891L10.0001 32.5891C10.0001 32.5891 10.0001 32.5891 10.0001 32.5891C10.0001 32.5891 10.0001 32.5891 10.0001 32.5891C10.0001 32.5891 10.0001 32.5891 10.0001 32.5891L10.0001 28.5891C10.0001 28.5891 10.0001 28.5891 10.0001 28.5891C10.0001 28.5891 10.0001 28.5891 10.0001 28.5891C10.0001 28.5891 10.0001 28.5891 10.0001 28.5891L10.0001 28.5891C10.0001 28.5891 10.0001 28.5891 10 28.5891C10 28.5891 10 28.5891 10 28.5891C10 28.5891 10 28.5891 10 28.5891C10 28.5891 10 28.5891 10 28.5891C10 28.5891 10 28.5891 10 28.5891C10 28.5891 10 28.5891 10 28.5891C10 28.5891 10 28.5891 10 28.5891C10 28.5891 10 28.5891 10 28.5891C10 28.5891 10 28.5891 10 28.5891L10 28.5891C10 28.5891 10 28.5891 10 28.5891C10 28.5891 10 28.5891 10 28.5891C10 28.5891 10 28.5891 10 28.5891L10 32.5891ZM10.0001 32.5891C11.3321 32.5891 12.4119 33.6689 12.4119 35.0008L16.4119 35.0008C16.4119 31.4597 13.5412 28.5891 10.0001 28.5891L10.0001 32.5891ZM12.4119 35.0008C12.4119 36.3328 11.3321 37.4126 10.0001 37.4126L10.0001 41.4126C13.5412 41.4126 16.4119 38.542 16.4119 35.0008L12.4119 35.0008ZM10.0001 37.4126C10.0001 37.4126 10.0001 37.4126 10.0001 37.4126C10.0001 37.4126 10.0001 37.4126 10.0001 37.4126C10.0001 37.4126 10.0001 37.4126 10.0001 37.4126L10.0001 37.4126C10.0001 37.4126 10.0001 37.4126 10 37.4126C10 37.4126 10 37.4126 10 37.4126C10 37.4126 10 37.4126 10 37.4126C10 37.4126 10 37.4126 10 37.4126C10 37.4126 10 37.4126 10 37.4126C10 37.4126 10 37.4126 10 37.4126C10 37.4126 10 37.4126 10 37.4126C10 37.4126 10 37.4126 10 37.4126C10 37.4126 10 37.4126 10 37.4126L10 37.4126C10 37.4126 10 37.4126 10 37.4126C10 37.4126 10 37.4126 10 37.4126C10 37.4126 10 37.4126 10 37.4126L10 41.4126C10 41.4126 10 41.4126 10 41.4126C10 41.4126 10 41.4126 10 41.4126C10 41.4126 10 41.4126 10 41.4126L10 41.4126C10 41.4126 10 41.4126 10 41.4126C10 41.4126 10 41.4126 10 41.4126C10 41.4126 10 41.4126 10 41.4126C10 41.4126 10 41.4126 10 41.4126C10 41.4126 10 41.4126 10 41.4126C10 41.4126 10 41.4126 10 41.4126C10 41.4126 10 41.4126 10 41.4126C10 41.4126 10 41.4126 10 41.4126C10.0001 41.4126 10.0001 41.4126 10.0001 41.4126L10.0001 41.4126C10.0001 41.4126 10.0001 41.4126 10.0001 41.4126C10.0001 41.4126 10.0001 41.4126 10.0001 41.4126C10.0001 41.4126 10.0001 41.4126 10.0001 41.4126L10.0001 37.4126ZM12 47.5L12 39.4126L8 39.4126L8 47.5L12 47.5Z" fill="black" mask="url(#path-2-inside-1_4411_19155)"/>
<path d="M28.206 38.7812V33.2412L27.056 33.5112V32.5312L28.746 31.7812H29.536V38.7812H28.206ZM33.3633 38.9013C32.7166 38.9013 32.1633 38.7513 31.7033 38.4513C31.2433 38.1446 30.8866 37.7212 30.6333 37.1812C30.3866 36.6346 30.2633 36.0012 30.2633 35.2812C30.2633 34.5679 30.3866 33.9379 30.6333 33.3912C30.8866 32.8446 31.2433 32.4212 31.7033 32.1212C32.1633 31.8146 32.7166 31.6612 33.3633 31.6612C34.01 31.6612 34.5633 31.8146 35.0233 32.1212C35.4833 32.4212 35.8366 32.8446 36.0833 33.3912C36.3366 33.9379 36.4633 34.5679 36.4633 35.2812C36.4633 36.0012 36.3366 36.6346 36.0833 37.1812C35.8366 37.7212 35.4833 38.1446 35.0233 38.4513C34.5633 38.7513 34.01 38.9013 33.3633 38.9013ZM33.3633 37.7512C33.89 37.7512 34.32 37.5312 34.6533 37.0912C34.9866 36.6512 35.1533 36.0479 35.1533 35.2812C35.1533 34.5146 34.9866 33.9112 34.6533 33.4712C34.32 33.0312 33.89 32.8112 33.3633 32.8112C32.83 32.8112 32.3966 33.0312 32.0633 33.4712C31.7366 33.9112 31.5733 34.5146 31.5733 35.2812C31.5733 36.0479 31.7366 36.6512 32.0633 37.0912C32.3966 37.5312 32.83 37.7512 33.3633 37.7512ZM38.6329 35.2212C38.3129 35.2212 38.0229 35.1512 37.7629 35.0112C37.5029 34.8646 37.2962 34.6579 37.1429 34.3912C36.9896 34.1246 36.9129 33.8079 36.9129 33.4412C36.9129 33.0746 36.9896 32.7579 37.1429 32.4912C37.2962 32.2246 37.5029 32.0212 37.7629 31.8812C38.0229 31.7346 38.3162 31.6612 38.6429 31.6612C38.9629 31.6612 39.2496 31.7346 39.5029 31.8812C39.7629 32.0212 39.9696 32.2246 40.1229 32.4912C40.2762 32.7579 40.3529 33.0746 40.3529 33.4412C40.3529 33.8079 40.2762 34.1246 40.1229 34.3912C39.9696 34.6579 39.7629 34.8646 39.5029 35.0112C39.2429 35.1512 38.9529 35.2212 38.6329 35.2212ZM38.2529 38.7812L42.2029 31.7812H43.4529L39.5029 38.7812H38.2529ZM38.6329 34.3312C38.8262 34.3312 38.9929 34.2579 39.1329 34.1112C39.2729 33.9579 39.3429 33.7346 39.3429 33.4412C39.3429 33.1479 39.2729 32.9246 39.1329 32.7712C38.9996 32.6179 38.8329 32.5412 38.6329 32.5412C38.4329 32.5412 38.2629 32.6179 38.1229 32.7712C37.9896 32.9246 37.9229 33.1479 37.9229 33.4412C37.9229 33.7346 37.9896 33.9579 38.1229 34.1112C38.2629 34.2579 38.4329 34.3312 38.6329 34.3312ZM43.1129 38.9013C42.7929 38.9013 42.5029 38.8312 42.2429 38.6912C41.9829 38.5446 41.7762 38.3379 41.6229 38.0712C41.4696 37.8046 41.3929 37.4879 41.3929 37.1212C41.3929 36.7546 41.4696 36.4412 41.6229 36.1812C41.7762 35.9146 41.9829 35.7112 42.2429 35.5712C42.5029 35.4246 42.7962 35.3512 43.1229 35.3512C43.4429 35.3512 43.7296 35.4246 43.9829 35.5712C44.2429 35.7112 44.4496 35.9146 44.6029 36.1812C44.7562 36.4412 44.8329 36.7546 44.8329 37.1212C44.8329 37.4879 44.7562 37.8046 44.6029 38.0712C44.4496 38.3379 44.2429 38.5446 43.9829 38.6912C43.7296 38.8312 43.4396 38.9013 43.1129 38.9013ZM43.1129 38.0112C43.3129 38.0112 43.4796 37.9379 43.6129 37.7912C43.7529 37.6379 43.8229 37.4146 43.8229 37.1212C43.8229 36.8279 43.7529 36.6046 43.6129 36.4512C43.4796 36.2979 43.3129 36.2212 43.1129 36.2212C42.9129 36.2212 42.7429 36.2979 42.6029 36.4512C42.4696 36.6046 42.4029 36.8279 42.4029 37.1212C42.4029 37.4146 42.4696 37.6379 42.6029 37.7912C42.7429 37.9379 42.9129 38.0112 43.1129 38.0112Z" fill="black"/>
</svg>
