<svg width="70" height="70" viewBox="0 0 70 70" fill="none" xmlns="http://www.w3.org/2000/svg">
<circle cx="35" cy="35" r="35" fill="white"/>
<mask id="path-2-inside-1_4411_19170" fill="white">
<path fill-rule="evenodd" clip-rule="evenodd" d="M10 47.5L60 47.5L60 22.5L10 22.5L10 30.5891C12.4365 30.5891 14.4116 32.5643 14.4116 35.0008C14.4116 37.4373 12.4365 39.4125 10 39.4126L10 47.5Z"/>
</mask>
<path fill-rule="evenodd" clip-rule="evenodd" d="M10 47.5L60 47.5L60 22.5L10 22.5L10 30.5891C12.4365 30.5891 14.4116 32.5643 14.4116 35.0008C14.4116 37.4373 12.4365 39.4125 10 39.4126L10 47.5Z" fill="white"/>
<path d="M60 47.5L60 49.5L62 49.5L62 47.5L60 47.5ZM10 47.5L8 47.5L8 49.5L10 49.5L10 47.5ZM60 22.5L62 22.5L62 20.5L60 20.5L60 22.5ZM10 22.5L10 20.5L8 20.5L8 22.5L10 22.5ZM10 30.5891L8 30.5891L8 32.589L9.99992 32.5891L10 30.5891ZM10 39.4126L9.99992 37.4126L8 37.4127L8 39.4126L10 39.4126ZM60 45.5L10 45.5L10 49.5L60 49.5L60 45.5ZM58 22.5L58 47.5L62 47.5L62 22.5L58 22.5ZM10 24.5L60 24.5L60 20.5L10 20.5L10 24.5ZM12 30.5891L12 22.5L8 22.5L8 30.5891L12 30.5891ZM9.99992 32.5891C11.3319 32.5891 12.4116 33.6689 12.4116 35.0008L16.4116 35.0008C16.4116 31.4598 13.5411 28.5892 10.0001 28.5891L9.99992 32.5891ZM12.4116 35.0008C12.4116 36.3328 11.3319 37.4125 9.99992 37.4126L10.0001 41.4126C13.5411 41.4124 16.4116 38.5419 16.4116 35.0008L12.4116 35.0008ZM12 47.5L12 39.4126L8 39.4126L8 47.5L12 47.5Z" fill="black" mask="url(#path-2-inside-1_4411_19170)"/>
<path d="M18.0917 38.2188L18.0917 32.6787L16.9417 32.9487L16.9417 31.9688L18.6317 31.2187L19.4217 31.2187L19.4217 38.2188L18.0917 38.2188ZM23.499 38.3388C22.8523 38.3388 22.299 38.1888 21.839 37.8888C21.379 37.5821 21.0223 37.1587 20.769 36.6187C20.5223 36.0721 20.399 35.4387 20.399 34.7187C20.399 34.0054 20.5223 33.3754 20.769 32.8287C21.0223 32.2821 21.379 31.8587 21.839 31.5587C22.299 31.2521 22.8523 31.0987 23.499 31.0987C24.1457 31.0987 24.699 31.2521 25.159 31.5587C25.619 31.8587 25.9723 32.2821 26.219 32.8287C26.4723 33.3754 26.599 34.0054 26.599 34.7187C26.599 35.4387 26.4723 36.0721 26.219 36.6187C25.9723 37.1587 25.619 37.5821 25.159 37.8888C24.699 38.1888 24.1457 38.3388 23.499 38.3388ZM23.499 37.1887C24.0257 37.1887 24.4557 36.9687 24.789 36.5287C25.1223 36.0887 25.289 35.4854 25.289 34.7187C25.289 33.9521 25.1223 33.3487 24.789 32.9087C24.4557 32.4687 24.0257 32.2488 23.499 32.2488C22.9657 32.2488 22.5323 32.4687 22.199 32.9087C21.8723 33.3487 21.709 33.9521 21.709 34.7187C21.709 35.4854 21.8723 36.0887 22.199 36.5287C22.5323 36.9687 22.9657 37.1887 23.499 37.1887ZM26.7359 39.3788L27.3059 36.8888L28.5459 36.8888L27.5759 39.3788L26.7359 39.3788ZM32.3103 38.3388C31.6637 38.3388 31.1103 38.1888 30.6503 37.8888C30.1903 37.5821 29.8337 37.1588 29.5803 36.6187C29.3337 36.0721 29.2103 35.4387 29.2103 34.7187C29.2103 34.0054 29.3337 33.3754 29.5803 32.8287C29.8337 32.2821 30.1903 31.8587 30.6503 31.5587C31.1103 31.2521 31.6637 31.0987 32.3103 31.0987C32.957 31.0987 33.5103 31.2521 33.9703 31.5588C34.4303 31.8587 34.7837 32.2821 35.0303 32.8287C35.2837 33.3754 35.4103 34.0054 35.4103 34.7187C35.4103 35.4387 35.2837 36.0721 35.0303 36.6187C34.7837 37.1588 34.4303 37.5821 33.9703 37.8888C33.5103 38.1888 32.957 38.3388 32.3103 38.3388ZM32.3103 37.1888C32.837 37.1888 33.267 36.9687 33.6003 36.5287C33.9337 36.0887 34.1003 35.4854 34.1003 34.7187C34.1003 33.9521 33.9337 33.3487 33.6003 32.9087C33.267 32.4688 32.837 32.2488 32.3103 32.2488C31.777 32.2488 31.3437 32.4688 31.0103 32.9087C30.6837 33.3487 30.5203 33.9521 30.5203 34.7187C30.5203 35.4854 30.6837 36.0887 31.0103 36.5287C31.3437 36.9687 31.777 37.1888 32.3103 37.1888ZM39.2599 38.3388C38.6133 38.3388 38.0599 38.1888 37.5999 37.8888C37.1399 37.5821 36.7833 37.1588 36.5299 36.6187C36.2833 36.0721 36.1599 35.4387 36.1599 34.7187C36.1599 34.0054 36.2833 33.3754 36.5299 32.8287C36.7833 32.2821 37.1399 31.8587 37.5999 31.5588C38.0599 31.2521 38.6133 31.0987 39.2599 31.0987C39.9066 31.0988 40.4599 31.2521 40.9199 31.5588C41.3799 31.8587 41.7333 32.2821 41.9799 32.8287C42.2333 33.3754 42.3599 34.0054 42.3599 34.7187C42.3599 35.4387 42.2333 36.0721 41.9799 36.6188C41.7333 37.1588 41.3799 37.5821 40.9199 37.8888C40.4599 38.1888 39.9066 38.3388 39.2599 38.3388ZM39.2599 37.1888C39.7866 37.1888 40.2166 36.9688 40.5499 36.5287C40.8833 36.0887 41.0499 35.4854 41.0499 34.7187C41.0499 33.9521 40.8833 33.3487 40.5499 32.9087C40.2166 32.4688 39.7866 32.2488 39.2599 32.2488C38.7266 32.2488 38.2933 32.4688 37.9599 32.9087C37.6333 33.3487 37.4699 33.9521 37.4699 34.7187C37.4699 35.4854 37.6333 36.0887 37.9599 36.5287C38.2933 36.9688 38.7266 37.1888 39.2599 37.1888ZM46.2095 38.3388C45.5629 38.3388 45.0095 38.1888 44.5495 37.8888C44.0895 37.5821 43.7329 37.1588 43.4795 36.6188C43.2329 36.0721 43.1095 35.4387 43.1095 34.7187C43.1095 34.0054 43.2329 33.3754 43.4795 32.8287C43.7329 32.2821 44.0895 31.8587 44.5495 31.5588C45.0095 31.2521 45.5629 31.0988 46.2095 31.0988C46.8562 31.0988 47.4095 31.2521 47.8695 31.5588C48.3295 31.8587 48.6829 32.2821 48.9295 32.8287C49.1829 33.3754 49.3095 34.0054 49.3095 34.7187C49.3095 35.4388 49.1829 36.0721 48.9295 36.6188C48.6829 37.1588 48.3295 37.5821 47.8695 37.8888C47.4095 38.1888 46.8562 38.3388 46.2095 38.3388ZM46.2095 37.1888C46.7362 37.1888 47.1662 36.9688 47.4995 36.5288C47.8329 36.0888 47.9995 35.4854 47.9995 34.7187C47.9995 33.9521 47.8329 33.3487 47.4995 32.9087C47.1662 32.4688 46.7362 32.2488 46.2095 32.2488C45.6762 32.2488 45.2429 32.4688 44.9095 32.9087C44.5829 33.3487 44.4195 33.9521 44.4195 34.7187C44.4195 35.4854 44.5829 36.0888 44.9095 36.5288C45.2429 36.9688 45.6762 37.1888 46.2095 37.1888ZM50.1531 38.2188L50.1531 32.6187L51.3691 32.6187L53.1531 36.1708L54.9131 32.6187L56.1291 32.6187L56.1291 38.2188L55.1051 38.2188L55.1051 34.3548L53.5451 37.4188L52.7371 37.4188L51.1771 34.3548L51.1771 38.2188L50.1531 38.2188Z" fill="black"/>
</svg>
