<svg width="70" height="70" viewBox="0 0 70 70" fill="none" xmlns="http://www.w3.org/2000/svg">
<circle cx="35" cy="35" r="35" fill="white"/>
<path d="M15 43.5791H21.9388H34.5918H41.1224L47.2449 49.7015V43.5791H55V18.2729H15V43.5791Z" fill="white"/>
<path d="M27.2449 43.5791H15V18.2729H55V43.5791H47.2449V49.7015L41.1224 43.5791H30.9184" stroke="black" stroke-width="2"/>
<path d="M19.8984 36.4307L33.4633 49.9956L36.9267 49.9956L36.9267 46.5322L23.3618 32.9673L19.8984 36.4307Z" fill="white"/>
<path d="M36.9267 49.9956L36.9267 46.5322L23.3618 32.9673L19.8984 36.4307L33.4633 49.9956L36.9267 49.9956ZM36.9267 49.9956L33.776 46.8448" stroke="black" stroke-width="2"/>
<path d="M22.3477 24.8052H47.6538" stroke="black" stroke-width="2"/>
<path d="M29.6953 30.5181L47.6545 30.5181" stroke="black" stroke-width="2"/>
<path d="M37.0391 36.2305L47.6513 36.2305" stroke="black" stroke-width="2"/>
</svg>
